<?xml version="1.0" encoding="UTF-8"?>
<svg width="64px" height="56px" viewBox="0 0 64 56" version="1.1" xmlns="http://www.w3.org/2000/svg" xmlns:xlink="http://www.w3.org/1999/xlink">
    <!-- Generator: Sketch 47.1 (45422) - http://www.bohemiancoding.com/sketch -->
    <title>Shape</title>
    <desc>Created with Sketch.</desc>
    <defs></defs>
    <g id="Page-1" stroke="none" stroke-width="1" fill="none" fill-rule="evenodd">
        <g id="index" transform="translate(-928.000000, -2332.000000)" fill-rule="nonzero" fill="#1579C5">
            <g id="#3" transform="translate(0.000000, 1831.000000)">
                <g id="item_2" transform="translate(780.000000, 450.000000)">
                    <path d="M211.015206,65.681426 C210.257535,64.5337611 208.363902,63.3858764 206.848778,63.3858764 L157.989784,59.9426619 L156.095934,53.8213428 C156.095934,53.4387879 155.717207,52.6736779 154.959754,52.6736779 L150.4146,51.1434581 C149.657146,50.7609032 148.520749,51.1434581 148.142022,52.291123 C147.763296,53.0562329 148.142022,54.2041176 149.278202,54.5866726 L153.065686,55.7343375 L154.959536,62.2382115 L162.534503,88.6362626 C163.076039,90.6332435 164.223754,92.2744922 165.716024,93.4606324 C164.019155,94.8686106 162.90953,96.9726629 162.90953,99.3484611 C162.90953,103.556786 166.318286,107 170.484496,107 C174.650706,107 178.059463,103.556786 178.059463,99.3484611 C178.059463,97.9521355 177.6581,96.6549664 177.002729,95.5226916 L191.618746,95.5226916 C190.963592,96.6551862 190.562011,97.9521355 190.562011,99.3484611 C190.562011,103.556786 193.970768,107 198.136978,107 C202.307106,107 205.711945,103.556786 205.711945,99.3484611 C205.711945,97.2864019 204.886365,95.4154003 203.560604,94.0344649 C205.416364,92.8408494 206.806552,90.9891955 207.230769,88.6362626 L211.775924,70.6548604 C212.151385,68.7420856 212.151385,67.2116459 211.015206,65.681426 L211.015206,65.681426 Z M170.484932,103.17445 C168.212355,103.17445 166.697448,101.644231 166.697448,99.3486809 C166.697448,97.0531313 168.212355,95.5229115 170.484932,95.5229115 C172.378782,95.5229115 174.272415,97.0531313 174.272415,99.3486809 C174.272415,101.644231 172.757291,103.17445 170.484932,103.17445 Z M198.133713,103.17445 C195.861136,103.17445 194.34623,101.644231 194.34623,99.3486809 C194.34623,97.0531313 195.861136,95.5229115 198.133713,95.5229115 C200.409991,95.5229115 201.921197,97.0531313 201.921197,99.3486809 C201.921197,101.644231 200.406291,103.17445 198.133713,103.17445 Z M203.815047,87.8711527 C203.49683,89.8070127 201.807579,91.3946158 199.705646,91.8690719 C199.198066,91.758043 198.675467,91.6969222 198.133713,91.6969222 C197.349706,91.6969222 196.607271,91.8536818 195.895309,92.0794771 L172.723119,92.0794771 C172.011156,91.8536818 171.268722,91.6969222 170.484714,91.6969222 C170.306669,91.6969222 170.139942,91.7389153 169.965815,91.7505678 C168.322055,91.1116571 166.886594,89.6043026 166.314586,87.8711527 L159.49729,64.1509863 L206.462651,67.5942008 C207.220104,67.5942008 207.598831,67.9767558 207.977557,68.3593107 C208.356284,68.7418657 208.356284,69.5069756 208.356284,69.8895306 L203.815047,87.8711527 L203.815047,87.8711527 Z" id="Shape"></path>
                </g>
            </g>
        </g>
    </g>
</svg>