<?xml version="1.0" encoding="UTF-8"?>
<svg width="44px" height="57px" viewBox="0 0 44 57" version="1.1" xmlns="http://www.w3.org/2000/svg" xmlns:xlink="http://www.w3.org/1999/xlink">
    <!-- Generator: Sketch 47.1 (45422) - http://www.bohemiancoding.com/sketch -->
    <title>Shape</title>
    <desc>Created with Sketch.</desc>
    <defs></defs>
    <g id="Page-1" stroke="none" stroke-width="1" fill="none" fill-rule="evenodd">
        <g id="index" transform="translate(-1312.000000, -2317.000000)" fill-rule="nonzero" fill="#1579C5">
            <g id="#3" transform="translate(-16.000000, 1817.000000)">
                <g id="item_3" transform="translate(1170.000000, 450.000000)">
                    <g id="file" transform="translate(158.000000, 50.000000)">
                        <g id="Group-2">
                            <path d="M44,21.7941857 C44,21.2242242 43.7664003,20.7816273 43.3908123,20.4864343 C43.1943629,20.1176357 42.9642642,19.7621324 42.6462496,19.4470928 L24.3692577,1.34127848 C24.0883934,1.15360354 23.7734908,0.972479886 23.4486685,0.801375837 C23.1711108,0.311956595 22.6702621,0 22,0 C21.8035506,0 21.6310252,0.0470150767 21.4653075,0.0938374687 C21.1945574,0.0435467514 20.9203063,0 20.6462496,0 L8.4615235,0 C3.7232026,0 0,3.68817862 0,8.38236428 L0,48.6176357 C0,53.3118214 3.7230081,57 8.4615235,57 L35.5384765,57 C40.2769919,57 44,53.3118214 44,48.6176357 L44,23.1352714 C44,22.8100196 43.9762705,22.4882361 43.9323125,22.1697282 C43.9593486,22.0458319 44,21.9317626 44,21.7941857 L44,21.7941857 Z M38.5846094,20.1178284 L28.7693355,20.1178284 C26.0616402,20.1178284 23.6923825,17.7707356 23.6923825,15.0883713 L23.6923825,5.36492124 L38.5846094,20.1178284 Z M35.5384765,53.6472855 L8.4615235,53.6472855 C5.7538282,53.6472855 3.3845705,51.3001927 3.3845705,48.6178284 L3.3845705,8.38255696 C3.3845705,5.70019268 5.7538282,3.35309986 8.4615235,3.35309986 L20.3076175,3.35309986 L20.3076175,15.0883713 C20.3076175,19.782557 24.0306256,23.4707356 28.769141,23.4707356 L40.615235,23.4707356 L40.615235,48.6178284 C40.6154295,51.3001927 38.2461718,53.6472855 35.5384765,53.6472855 Z" id="Shape"></path>
                        </g>
                    </g>
                </g>
            </g>
        </g>
    </g>
</svg>