<?xml version="1.0" encoding="UTF-8"?>
<svg width="38px" height="56px" viewBox="0 0 38 56" version="1.1" xmlns="http://www.w3.org/2000/svg" xmlns:xlink="http://www.w3.org/1999/xlink">
    <!-- Generator: Sketch 47.1 (45422) - http://www.bohemiancoding.com/sketch -->
    <title>Shape</title>
    <desc>Created with Sketch.</desc>
    <defs></defs>
    <g id="Page-1" stroke="none" stroke-width="1" fill="none" fill-rule="evenodd">
        <g id="index" transform="translate(-551.000000, -2332.000000)" fill-rule="nonzero" fill="#1579C5">
            <g id="#3" transform="translate(0.000000, 1831.000000)">
                <g id="item_1" transform="translate(390.000000, 450.000000)">
                    <path d="M198.878391,99.9029558 L191.484819,80.4275913 L197.116731,77.7247565 C197.997561,77.4290676 198.291171,76.5420008 197.997561,75.950453 L195.648512,69.4447867 L197.997561,62.9391204 C198.291171,62.3477425 197.703951,61.4605058 197.116731,61.1648168 L190.950415,58.2077576 L188.013977,51.9979501 C187.720367,51.1108833 186.839537,50.8151944 186.252148,51.1108833 L179.792222,53.4765647 L173.332464,51.1108833 C172.745244,50.8151944 171.864245,51.4065723 171.570635,51.9979501 L168.634366,58.2077576 L162.46805,61.1649868 C161.58722,61.4606757 161.29361,62.3477425 161.58722,62.9392903 L163.936269,69.4449566 L161.58722,75.950453 C161.29361,76.5418308 161.88083,77.4290676 162.46805,77.7247565 L168.017785,80.3861268 L161,99.6072669 C161,100.198645 161,100.790023 161.29361,101.085881 C161.58722,101.677259 162.17444,101.677259 162.761829,101.677259 L169.808975,100.494504 L174.213463,106.112933 C174.507073,106.408622 174.800683,106.704311 175.387903,106.704311 L175.681513,106.704311 C176.268733,106.704311 176.562343,106.408622 176.855953,105.817244 L179.830357,97.6733933 L183.022101,106.112933 C183.315711,106.704311 183.609321,107 184.196541,107 L184.490151,107 C185.077371,107 185.370981,106.704311 185.664591,106.408622 L190.069078,100.790193 L197.116225,101.972948 C197.703445,101.972948 198.290665,101.677259 198.584444,101.38157 C198.878391,101.085712 199.172001,100.494334 198.878391,99.9029558 L198.878391,99.9029558 Z M165.110878,63.2349792 L170.689805,60.5736089 C170.983415,60.5736089 171.277025,60.27792 171.277025,59.982231 L173.919684,54.3638015 L179.498612,56.4337939 C179.792222,56.4337939 180.085832,56.4337939 180.379442,56.4337939 L185.95837,54.3638015 L188.601028,59.982231 C188.601028,60.27792 188.894638,60.5736089 189.188248,60.5736089 L194.767176,63.2349792 L192.711737,68.8534088 C192.711737,69.1490977 192.711737,69.4447867 192.711737,69.7404756 L194.767176,75.3589052 L189.188248,78.0202755 C188.894638,78.0202755 188.601028,78.3159644 188.601028,78.6116534 L185.95837,84.230083 L180.379442,82.1600905 C180.085832,82.1600905 180.085832,82.1600905 179.792222,82.1600905 C179.498612,82.1600905 179.498612,82.1600905 179.498612,82.1600905 L173.919684,84.230083 L171.277025,78.6116534 C171.277025,78.3159644 170.983415,78.0202755 170.689805,78.0202755 L165.110878,75.3589052 L167.166316,69.7404756 C167.166316,69.4447867 167.166316,69.1490977 167.166316,68.8534088 L165.110878,63.2349792 Z M175.094293,102.564326 L171.570635,98.1286523 C171.277025,97.5372744 170.689805,97.5372744 170.102417,97.5372744 L164.523489,98.4243412 L169.961517,83.4881416 L171.570635,86.8917931 C171.864245,87.7788599 172.745075,88.0745489 173.332464,87.7788599 L179.792391,85.4131785 L181.157677,85.9129608 L175.094293,102.564326 L175.094293,102.564326 Z M189.482196,97.2415855 C188.894976,97.2415855 188.307756,97.5372744 188.013977,97.8329634 L184.49032,102.268637 L181.339749,93.5393562 L183.774012,86.8710609 L186.252317,87.7788599 C186.545927,87.7788599 186.545927,87.7788599 186.839537,87.7788599 C187.133147,87.7788599 187.720367,87.483171 188.013977,86.8917931 L189.684686,83.3610294 L195.060955,98.1286523 L189.482196,97.2415855 Z" id="Shape"></path>
                </g>
            </g>
        </g>
    </g>
</svg>