<?xml version="1.0" encoding="UTF-8"?>
<svg width="18px" height="18px" viewBox="0 0 18 18" version="1.1" xmlns="http://www.w3.org/2000/svg" xmlns:xlink="http://www.w3.org/1999/xlink">
    <!-- Generator: Sketch 47.1 (45422) - http://www.bohemiancoding.com/sketch -->
    <title>Group 5</title>
    <desc>Created with Sketch.</desc>
    <defs></defs>
    <g id="Page-1" stroke="none" stroke-width="1" fill="none" fill-rule="evenodd" opacity="0.5">
        <g id="index" transform="translate(-1429.000000, -6317.000000)" fill-rule="nonzero" fill="#FFFFFF">
            <g id="#8" transform="translate(0.000000, 5831.000000)">
                <g id="icons" transform="translate(1378.000000, 486.000000)">
                    <g id="Group-5" transform="translate(51.000000, 0.000000)">
                        <g id="instagram">
                            <path d="M13.1364492,0 L4.86355078,0 C2.18179687,0 0,2.18179687 0,4.86355078 L0,13.1364492 C0,15.8182031 2.18179687,18 4.86355078,18 L13.1364492,18 C15.8182031,18 18,15.8182031 18,13.1364492 L18,4.86355078 C18,2.18179687 15.8182031,0 13.1364492,0 Z M16.5457969,13.1364492 C16.5457969,15.0163594 15.0163945,16.5457969 13.1364492,16.5457969 L4.86355078,16.5457969 C2.98364062,16.5457969 1.45420312,15.0163945 1.45420312,13.1364492 L1.45420312,4.86355078 C1.45420312,2.98364062 2.98360547,1.45420312 4.86355078,1.45420312 L13.1364492,1.45420312 C15.0163594,1.45420312 16.5457969,2.98360547 16.5457969,4.86355078 L16.5457969,13.1364492 L16.5457969,13.1364492 Z" id="Shape"></path>
                            <path d="M12.6650442,8.4561105 C12.5475749,7.66385127 12.1861629,6.94579272 11.6198896,6.37945986 C11.0536163,5.81315928 10.3356332,5.45167708 9.54348954,5.33422765 C9.18281987,5.28074765 8.81714807,5.28074765 8.45651067,5.33422765 C7.47751326,5.47943375 6.6136939,5.99719244 6.02412033,6.79216279 C5.43454676,7.58713313 5.18976514,8.56416786 5.33495598,9.54320365 C5.48014682,10.5222717 5.99785109,11.3861819 6.79273787,11.9758497 C7.43804484,12.4545231 8.20320929,12.7058824 8.99215806,12.7058824 C9.17504237,12.7058824 9.35924982,12.6923913 9.54345727,12.6650542 C10.5224547,12.5198481 11.386274,12.0020894 11.9758476,11.2071191 C12.5654535,10.412181 12.8102351,9.43517857 12.6650442,8.4561105 Z M9.34766424,11.34445 C8.7214299,11.4374672 8.09648644,11.2807711 7.58797964,10.9035709 C7.07947284,10.5263707 6.74829959,9.97369021 6.65545362,9.34739003 C6.56257537,8.72108986 6.71912588,8.0960807 7.09628645,7.58752044 C7.47347928,7.07896018 8.02606936,6.74775212 8.65233597,6.65486411 C8.7676754,6.63775825 8.88382162,6.62920533 8.99996784,6.62920533 C9.11611405,6.62920533 9.23229255,6.63775825 9.34763197,6.65489638 C10.3877845,6.80913954 11.1902874,7.61169456 11.3445466,8.65198867 C11.5362411,9.94486846 10.6404727,11.1527354 9.34766424,11.34445 Z" id="Shape"></path>
                            <path d="M13.6096425,3.331534 C13.5110449,3.23296199 13.3745901,3.17647059 13.2352941,3.17647059 C13.0959981,3.17647059 12.9595434,3.2329364 12.8609458,3.331534 C12.7623738,3.43013159 12.7058824,3.566356 12.7058824,3.70588235 C12.7058824,3.8454087 12.7623738,3.98163311 12.8609458,4.08023071 C12.9595434,4.17880271 13.0959981,4.23529412 13.2352941,4.23529412 C13.3745901,4.23529412 13.5110449,4.17882831 13.6096425,4.08023071 C13.7082145,3.98163311 13.7647059,3.84517834 13.7647059,3.70588235 C13.7647059,3.56656077 13.7082145,3.430106 13.6096425,3.331534 Z" id="Shape"></path>
                        </g>
                    </g>
                </g>
            </g>
        </g>
    </g>
</svg>