<?xml version="1.0" encoding="UTF-8"?>
<svg width="81px" height="20px" viewBox="0 0 81 20" version="1.1" xmlns="http://www.w3.org/2000/svg" xmlns:xlink="http://www.w3.org/1999/xlink">
    <!-- Generator: Sketch 47.1 (45422) - http://www.bohemiancoding.com/sketch -->
    <title>menu</title>
    <desc>Created with Sketch.</desc>
    <defs></defs>
    <g id="Symbols" stroke="none" stroke-width="1" fill="none" fill-rule="evenodd">
        <g id="top_header-(tablet)" transform="translate(-443.000000, -31.000000)" fill="#02000D">
            <g id="top_header">
                <g id="center" transform="translate(442.000000, 31.000000)">
                    <g id="menu">
                        <path d="M56.0385074,2 L80.9614926,2 C81.5845254,2 82,1.60004597 82,1 C82,0.399954028 81.5846448,0 80.9614926,0 L56.0385074,0 C55.4153552,0.000114929318 55,0.400068958 55,1 C55,1.59993104 55.4153552,2 56.0385074,2 Z" id="Shape" fill-rule="nonzero"></path>
                        <path d="M80.9614926,9 L56.0385074,9 C55.4154746,9 55,9.39995403 55,10 C55,10.600046 55.4153552,11 56.0385074,11 L80.9614926,11 C81.5845254,11 82,10.600046 82,10 C82,9.39995403 81.5845254,9 80.9614926,9 L80.9614926,9 Z" id="Shape" fill-rule="nonzero"></path>
                        <path d="M80.9614926,18 L56.0385074,18 C55.4154746,18 55,18.399954 55,19 C55,19.600046 55.4153552,20 56.0385074,20 L80.9614926,20 C81.5845254,20 82,19.600046 82,19 C82,18.399954 81.5845254,18 80.9614926,18 Z" id="Shape" fill-rule="nonzero"></path>
                        <text id="МЕНЮ" font-family="Roboto-Medium, Roboto" font-size="14" font-weight="400">
                            <tspan x="0.0283203125" y="15">МЕНЮ</tspan>
                        </text>
                    </g>
                </g>
            </g>
        </g>
    </g>
</svg>