<?xml version="1.0" encoding="UTF-8"?>
<svg width="20px" height="20px" viewBox="0 0 20 20" version="1.1" xmlns="http://www.w3.org/2000/svg" xmlns:xlink="http://www.w3.org/1999/xlink">
    <!-- Generator: Sketch 47.1 (45422) - http://www.bohemiancoding.com/sketch -->
    <title>Search</title>
    <desc>Created with Sketch.</desc>
    <defs></defs>
    <g id="Symbols" stroke="none" stroke-width="1" fill="none" fill-rule="evenodd">
        <g id="top_header-(tablet)" transform="translate(-559.000000, -31.000000)" fill-rule="nonzero" fill="#02000D">
            <g id="top_header">
                <g id="center" transform="translate(442.000000, 31.000000)">
                    <path d="M136.755102,18.5795918 L131.946939,13.7714286 C133.138776,12.3183673 133.857143,10.4571429 133.857143,8.42857143 C133.857143,3.7755102 130.081633,0 125.428571,0 C120.771429,0 117,3.7755102 117,8.42857143 C117,13.0816327 120.771429,16.8571429 125.428571,16.8571429 C127.457143,16.8571429 129.314286,16.1428571 130.767347,14.9510204 L135.57551,19.755102 C135.902041,20.0816327 136.428571,20.0816327 136.755102,19.755102 C137.081633,19.4326531 137.081633,18.9020408 136.755102,18.5795918 Z M125.428571,15.1795918 C121.702041,15.1795918 118.673469,12.1510204 118.673469,8.42857143 C118.673469,4.70612245 121.702041,1.67346939 125.428571,1.67346939 C129.15102,1.67346939 132.183673,4.70612245 132.183673,8.42857143 C132.183673,12.1510204 129.15102,15.1795918 125.428571,15.1795918 Z" id="Search"></path>
                </g>
            </g>
        </g>
    </g>
</svg>