<?xml version="1.0" encoding="UTF-8"?>
<svg width="18px" height="18px" viewBox="0 0 18 18" version="1.1" xmlns="http://www.w3.org/2000/svg" xmlns:xlink="http://www.w3.org/1999/xlink">
    <!-- Generator: Sketch 47.1 (45422) - http://www.bohemiancoding.com/sketch -->
    <title>Search</title>
    <desc>Created with Sketch.</desc>
    <defs></defs>
    <g id="All-Desktop" stroke="none" stroke-width="1" fill="none" fill-rule="evenodd">
        <g id="index-(navigation)" transform="translate(-1339.000000, -44.000000)" fill-rule="nonzero" fill="#9C9C9C">
            <g id="#1" transform="translate(-1055.000000, 24.000000)">
                <g id="top_header" transform="translate(1353.000000, 0.000000)">
                    <g id="nav" transform="translate(269.000000, 19.000000)">
                        <path d="M789.779592,17.7216327 L785.452245,13.3942857 C786.524898,12.0865306 787.171429,10.4114286 787.171429,8.58571429 C787.171429,4.39795918 783.773469,1 779.585714,1 C775.394286,1 772,4.39795918 772,8.58571429 C772,12.7734694 775.394286,16.1714286 779.585714,16.1714286 C781.411429,16.1714286 783.082857,15.5285714 784.390612,14.4559184 L788.717959,18.7795918 C789.011837,19.0734694 789.485714,19.0734694 789.779592,18.7795918 C790.073469,18.4893878 790.073469,18.0118367 789.779592,17.7216327 Z M779.585714,14.6616327 C776.231837,14.6616327 773.506122,11.9359184 773.506122,8.58571429 C773.506122,5.2355102 776.231837,2.50612245 779.585714,2.50612245 C782.935918,2.50612245 785.665306,5.2355102 785.665306,8.58571429 C785.665306,11.9359184 782.935918,14.6616327 779.585714,14.6616327 Z" id="Search"></path>
                    </g>
                </g>
            </g>
        </g>
    </g>
</svg>