<?xml version="1.0" encoding="UTF-8"?>
<svg width="22px" height="18px" viewBox="0 0 22 18" version="1.1" xmlns="http://www.w3.org/2000/svg" xmlns:xlink="http://www.w3.org/1999/xlink">
    <!-- Generator: Sketch 47.1 (45422) - http://www.bohemiancoding.com/sketch -->
    <title>twitter</title>
    <desc>Created with Sketch.</desc>
    <defs></defs>
    <g id="Page-1" stroke="none" stroke-width="1" fill="none" fill-rule="evenodd" opacity="0.5">
        <g id="index" transform="translate(-1509.000000, -6317.000000)" fill-rule="nonzero" fill="#FFFFFF">
            <g id="#8" transform="translate(0.000000, 5831.000000)">
                <g id="icons" transform="translate(1378.000000, 486.000000)">
                    <path d="M153,2.12968323 C152.190276,2.49108161 151.321455,2.73617786 150.408597,2.84560035 C151.340687,2.28338889 152.054178,1.39164264 152.392339,0.332322844 C151.518017,0.852966795 150.552927,1.23102114 149.524605,1.43596201 C148.70115,0.55113162 147.529864,0 146.230711,0 C143.738308,0 141.717433,2.03554079 141.717433,4.5446543 C141.717433,4.90051275 141.757299,5.24807943 141.834299,5.58043849 C138.084012,5.39070524 134.758519,3.58088908 132.532813,0.830807111 C132.14375,1.50102893 131.92242,2.28197675 131.92242,3.11560813 C131.92242,4.69282003 132.719777,6.08446267 133.929564,6.89865002 C133.189938,6.87373848 132.494313,6.66879761 131.885322,6.32814678 L131.885322,6.38492192 C131.885322,8.58662413 133.441537,10.4241399 135.505011,10.8423496 C135.126948,10.9448201 134.728287,11.0015952 134.315858,11.0015952 C134.02443,11.0015952 133.742599,10.9725197 133.466269,10.9171204 C134.040894,12.7241848 135.707109,14.0382685 137.681253,14.0742961 C136.137404,15.2928615 134.19076,16.0170704 132.07642,16.0170704 C131.712125,16.0170704 131.353295,15.9949107 131,15.9547553 C132.99751,17.2467156 135.368948,18 137.917717,18 C146.219783,18 150.75783,11.0736142 150.75783,5.06671039 L150.742696,4.47821145 C151.629383,3.84119295 152.396473,3.0408373 153,2.12968323 Z" id="twitter"></path>
                </g>
            </g>
        </g>
    </g>
</svg>