<?xml version="1.0" encoding="UTF-8"?>
<svg width="28px" height="15px" viewBox="0 0 28 15" version="1.1" xmlns="http://www.w3.org/2000/svg" xmlns:xlink="http://www.w3.org/1999/xlink">
    <!-- Generator: Sketch 47.1 (45422) - http://www.bohemiancoding.com/sketch -->
    <title>vk</title>
    <desc>Created with Sketch.</desc>
    <defs></defs>
    <g id="Page-1" stroke="none" stroke-width="1" fill="none" fill-rule="evenodd" opacity="0.5">
        <g id="index" transform="translate(-1378.000000, -6319.000000)" fill-rule="nonzero" fill="#FFFFFF">
            <g id="#8" transform="translate(0.000000, 5831.000000)">
                <g id="icons" transform="translate(1378.000000, 486.000000)">
                    <path d="M27.8515029,15.5466464 C27.8175981,15.4780381 27.7859911,15.4211282 27.7566308,15.3755332 C27.2708324,14.5540074 26.3424847,13.5456427 24.9721494,12.3501514 L24.9431975,12.3227752 L24.9286961,12.3093508 L24.9140415,12.2955908 L24.8993358,12.2955908 C24.2774077,11.7389094 23.8835709,11.3646082 23.7186426,11.1729748 C23.4168696,10.8079268 23.3492642,10.43842 23.5141926,10.0640229 C23.6307148,9.7811515 24.0684133,9.18376541 24.8262669,8.27104961 C25.2249034,7.78733947 25.5406162,7.39966179 25.7737626,7.10758506 C27.4552662,5.00858323 28.1842701,3.66729324 27.9606211,3.08318773 L27.8737656,2.94669028 C27.8154024,2.86451374 27.6647713,2.78933706 27.4220763,2.7207767 C27.1788197,2.65236017 26.8679067,2.64104531 26.4887757,2.68664035 L22.2903014,2.71387272 C22.2222876,2.691243 22.1251688,2.69335255 21.9986386,2.7207767 C21.8722616,2.74820084 21.8090476,2.76196086 21.8090476,2.76196086 L21.7359787,2.79624104 L21.6779729,2.8374252 C21.6293624,2.86465757 21.5759011,2.91255393 21.5175379,2.98101841 C21.4594811,3.04924316 21.4109217,3.12931015 21.372115,3.22054817 C20.9150131,4.32475355 20.39531,5.35138503 19.8120354,6.30039468 C19.4524098,6.86628136 19.1221445,7.35670369 18.8205247,7.77194935 C18.5193134,8.18705118 18.2666104,8.49288792 18.0626711,8.6889322 C17.8584254,8.88516826 17.6740937,9.04237765 17.5085526,9.1611357 C17.3432668,9.2799417 17.217094,9.33013939 17.1297279,9.31177672 C17.0421576,9.29341405 16.9596934,9.27519521 16.8816205,9.25697637 C16.7456439,9.17479983 16.6362703,9.06304164 16.5538062,8.92160593 C16.4709845,8.78017022 16.4152255,8.602153 16.3860694,8.38769811 C16.3570665,8.17309938 16.3399099,7.98851379 16.335008,7.83331807 C16.3304635,7.67831412 16.332557,7.45906479 16.3424119,7.17619337 C16.352522,6.89317812 16.3570665,6.70168855 16.3570665,6.60129316 C16.3570665,6.25446403 16.3642662,5.87805327 16.3787165,5.47196497 C16.3934222,5.06587667 16.4053195,4.74412242 16.4152765,4.50708576 C16.4251824,4.26980937 16.429778,4.01877297 16.429778,3.75412039 C16.429778,3.4894678 16.4126213,3.28191689 16.3787165,3.13127587 C16.3452203,2.98082663 16.2938014,2.83478827 16.2260429,2.69320872 C16.1578759,2.55177301 16.0581019,2.4423641 15.9271804,2.36469432 C15.7960036,2.28712043 15.6329134,2.22555993 15.438829,2.17982106 C14.9236703,2.07036421 14.2676842,2.01115298 13.4705644,2.00194768 C11.6629391,1.98372884 10.5014449,2.09332953 9.98633731,2.33060591 C9.78224482,2.43085746 9.59755566,2.56783435 9.43242302,2.74110509 C9.25743554,2.9419438 9.23302818,3.05154449 9.35935413,3.06957155 C9.94257768,3.15160426 10.3554603,3.34784031 10.5984616,3.65808794 L10.686032,3.82248897 C10.7541479,3.94110319 10.8221617,4.15109926 10.8902266,4.45218952 C10.9581893,4.75327978 11.0020511,5.08634889 11.0213523,5.45120508 C11.0698607,6.11748714 11.0698607,6.68783264 11.0213523,7.16228952 C10.9726908,7.63693818 10.9267355,8.00644497 10.8828737,8.27109755 C10.839012,8.53575013 10.7734491,8.75020503 10.686032,8.91441429 C10.5984616,9.07867149 10.5402005,9.17906687 10.5109934,9.21550454 C10.4818373,9.25194222 10.4575321,9.27490754 10.4382309,9.28392107 C10.3119049,9.32937228 10.1805239,9.35252938 10.0445473,9.35252938 C9.90836652,9.35252938 9.74323389,9.28857167 9.54889412,9.16075214 C9.35460542,9.03293262 9.15296387,8.85736056 8.94396948,8.6337483 C8.73497508,8.4100881 8.49927556,8.09753915 8.2367688,7.69605351 C7.97446628,7.29456787 7.70230891,6.82006304 7.42044987,6.27253904 L7.18725236,5.87546427 C7.04147201,5.620017 6.84233247,5.24806505 6.5896295,4.75994404 C6.33677334,4.27163126 6.11327751,3.79928393 5.9189888,3.34299794 C5.84132438,3.15136454 5.72464904,3.00547 5.56916701,2.90507462 L5.49620024,2.86389046 C5.44769189,2.82745279 5.36982322,2.78876173 5.26300273,2.74752962 C5.15602906,2.70634546 5.04440879,2.67681177 4.92768238,2.65864087 L0.933198521,2.68587324 C0.525013526,2.68587324 0.248056381,2.77270039 0.102224964,2.94611495 L0.0438617602,3.02814766 C0.0147056891,3.07383859 0,3.14680983 0,3.24725315 C0,3.34764854 0.0291560711,3.47086541 0.0875192747,3.61675994 C0.670640697,4.90358519 1.30477248,6.14462362 1.98991462,7.34006702 C2.67505676,8.53551041 3.27043292,9.49847186 3.77568568,10.2280883 C4.28104056,10.9582322 4.79614817,11.6473358 5.32100851,12.2950634 C5.84586885,12.9430307 6.19329075,13.3582764 6.36327422,13.5407045 C6.53346194,13.7234682 6.66714074,13.8601095 6.76431062,13.9513475 L7.1288381,14.2798139 C7.36208667,14.4988715 7.70460668,14.7612227 8.15655131,15.0668677 C8.60859807,15.3727045 9.10905105,15.6737947 9.65816556,15.9706179 C10.2073822,16.2669617 10.8463138,16.5087928 11.5753177,16.6958235 C12.3042194,16.8830461 13.0136668,16.9581748 13.7037619,16.9219289 L15.3803126,16.9219289 C15.7203306,16.8943609 15.9779355,16.7939655 16.1530251,16.6206948 L16.2110308,16.5520865 C16.2500418,16.4976218 16.2865507,16.4130001 16.3202512,16.2991323 C16.3543602,16.1850728 16.3713126,16.0594108 16.3713126,15.9227216 C16.3613557,15.5303933 16.3931669,15.176804 16.4658784,14.8620017 C16.5385388,14.5472952 16.6213604,14.3100189 16.7139858,14.1502205 C16.8065602,13.9905659 16.9110319,13.8558424 17.0272987,13.7466253 C17.1438209,13.6371684 17.2268467,13.5708614 17.2755593,13.54804 C17.3239656,13.5250746 17.3626191,13.5094927 17.3917751,13.5001436 C17.6250237,13.4271724 17.8995299,13.4978423 18.2157022,13.7124889 C18.5316192,13.9269438 18.8279286,14.1917402 19.10509,14.5064467 C19.3820982,14.8214408 19.7149166,15.1748383 20.1035961,15.5671666 C20.4925309,15.9596387 20.8326,16.2513798 21.1240586,16.4433009 L21.4155172,16.6075581 C21.6101633,16.7171588 21.8628663,16.8175541 22.1739325,16.9087922 C22.484437,16.9999822 22.7564922,17.0228037 22.9900982,16.9772087 L26.7220242,16.9225522 C27.0911473,16.9225522 27.3783677,16.8651628 27.5821028,16.7512951 C27.7862464,16.6372356 27.9075172,16.5115736 27.9466303,16.3748843 C27.9856412,16.2380513 27.9877347,16.0828076 27.9540342,15.9092492 C27.9194656,15.7361223 27.8854077,15.6150629 27.8515029,15.5466464 Z" id="vk"></path>
                </g>
            </g>
        </g>
    </g>
</svg>